<?xml version="1.0" encoding="UTF-8" standalone="no"?>
<!DOCTYPE svg PUBLIC "-//W3C//DTD SVG 1.1//EN"
 "http://www.w3.org/Graphics/SVG/1.1/DTD/svg11.dtd">
<!-- Generated by graphviz version 2.43.20190912.0211 (20190912.0211)
 -->
<!-- Title: inheritance8f8f78937d Pages: 1 -->
<svg width="353pt" height="156pt"
 viewBox="0.00 0.00 353.00 156.00" xmlns="http://www.w3.org/2000/svg" xmlns:xlink="http://www.w3.org/1999/xlink">
<g id="graph0" class="graph" transform="scale(1 1) rotate(0) translate(4 152)">
<title>inheritance8f8f78937d</title>
<polygon fill="white" stroke="transparent" points="-4,4 -4,-152 349,-152 349,4 -4,4"/>
<!-- AlignmentData -->
<g id="node1" class="node">
<title>AlignmentData</title>
<g id="a_node1"><a xlink:href="../api/CryoNIRSP_Pipeline.common.Data.AlignmentData.html#CryoNIRSP_Pipeline.common.Data.AlignmentData" xlink:title="AlignmentData is an extension of `FitData` designed to only hold data from the Alignment InstrumentProgramTask" target="_top">
<polygon fill="none" stroke="black" stroke-width="0.5" points="340.5,-148 250.5,-148 250.5,-129 340.5,-129 340.5,-148"/>
<text text-anchor="middle" x="295.5" y="-136" font-family="Vera Sans, DejaVu Sans, Liberation Sans, Arial, Helvetica, sans" font-size="10.00">AlignmentData</text>
</a>
</g>
</g>
<!-- _TaskData -->
<g id="node2" class="node">
<title>_TaskData</title>
<g id="a_node2"><a xlink:title="_TaskData is a class template that is used to define specific *Data classes that are designed to only hold data">
<polygon fill="none" stroke="black" stroke-width="0.5" points="189,-93 122,-93 122,-74 189,-74 189,-93"/>
<text text-anchor="middle" x="155.5" y="-81" font-family="Vera Sans, DejaVu Sans, Liberation Sans, Arial, Helvetica, sans" font-size="10.00">_TaskData</text>
</a>
</g>
</g>
<!-- _TaskData&#45;&gt;AlignmentData -->
<g id="edge1" class="edge">
<title>_TaskData&#45;&gt;AlignmentData</title>
<path fill="none" stroke="black" stroke-width="0.5" d="M178.84,-93C196.89,-100.62 222.99,-111.48 246,-120.5 251.62,-122.7 257.63,-124.99 263.44,-127.16"/>
<polygon fill="black" stroke="black" stroke-width="0.5" points="262.96,-128.85 268.26,-128.96 264.18,-125.57 262.96,-128.85"/>
</g>
<!-- DarkData -->
<g id="node6" class="node">
<title>DarkData</title>
<g id="a_node6"><a xlink:href="../api/CryoNIRSP_Pipeline.common.Data.DarkData.html#CryoNIRSP_Pipeline.common.Data.DarkData" xlink:title="DarkData is an extension of `FitData` designed to only hold data from the Dark InstrumentProgramTask" target="_top">
<polygon fill="none" stroke="black" stroke-width="0.5" points="327,-111 264,-111 264,-92 327,-92 327,-111"/>
<text text-anchor="middle" x="295.5" y="-99" font-family="Vera Sans, DejaVu Sans, Liberation Sans, Arial, Helvetica, sans" font-size="10.00">DarkData</text>
</a>
</g>
</g>
<!-- _TaskData&#45;&gt;DarkData -->
<g id="edge3" class="edge">
<title>_TaskData&#45;&gt;DarkData</title>
<path fill="none" stroke="black" stroke-width="0.5" d="M189.2,-87.77C210.16,-90.5 237.36,-94.05 258.87,-96.85"/>
<polygon fill="black" stroke="black" stroke-width="0.5" points="258.74,-98.6 263.92,-97.51 259.19,-95.13 258.74,-98.6"/>
</g>
<!-- GainData -->
<g id="node8" class="node">
<title>GainData</title>
<g id="a_node8"><a xlink:href="../api/CryoNIRSP_Pipeline.common.Data.GainData.html#CryoNIRSP_Pipeline.common.Data.GainData" xlink:title="GainData is an extension of `FitData` designed to only hold data from the Gain InstrumentProgramTask" target="_top">
<polygon fill="none" stroke="black" stroke-width="0.5" points="326.5,-74 264.5,-74 264.5,-55 326.5,-55 326.5,-74"/>
<text text-anchor="middle" x="295.5" y="-62" font-family="Vera Sans, DejaVu Sans, Liberation Sans, Arial, Helvetica, sans" font-size="10.00">GainData</text>
</a>
</g>
</g>
<!-- _TaskData&#45;&gt;GainData -->
<g id="edge5" class="edge">
<title>_TaskData&#45;&gt;GainData</title>
<path fill="none" stroke="black" stroke-width="0.5" d="M189.2,-79C210.31,-76.09 237.74,-72.31 259.32,-69.34"/>
<polygon fill="black" stroke="black" stroke-width="0.5" points="259.67,-71.06 264.39,-68.65 259.2,-67.59 259.67,-71.06"/>
</g>
<!-- ObservationData -->
<g id="node9" class="node">
<title>ObservationData</title>
<g id="a_node9"><a xlink:href="../api/CryoNIRSP_Pipeline.common.Data.ObservationData.html#CryoNIRSP_Pipeline.common.Data.ObservationData" xlink:title="ObservationData is an extension of `FitData` designed to only hold data from the Observation InstrumentProgramTask" target="_top">
<polygon fill="none" stroke="black" stroke-width="0.5" points="345,-37 246,-37 246,-18 345,-18 345,-37"/>
<text text-anchor="middle" x="295.5" y="-25" font-family="Vera Sans, DejaVu Sans, Liberation Sans, Arial, Helvetica, sans" font-size="10.00">ObservationData</text>
</a>
</g>
</g>
<!-- _TaskData&#45;&gt;ObservationData -->
<g id="edge6" class="edge">
<title>_TaskData&#45;&gt;ObservationData</title>
<path fill="none" stroke="black" stroke-width="0.5" d="M187.66,-73.96C195.07,-71.43 202.88,-68.55 210,-65.5 226.63,-58.37 229.55,-54.03 246,-46.5 251.65,-43.91 257.77,-41.34 263.69,-38.97"/>
<polygon fill="black" stroke="black" stroke-width="0.5" points="264.59,-40.49 268.6,-37.03 263.31,-37.24 264.59,-40.49"/>
</g>
<!-- CSStep -->
<g id="node3" class="node">
<title>CSStep</title>
<g id="a_node3"><a xlink:href="../api/CryoNIRSP_Pipeline.common.Data.CSStep.html#CryoNIRSP_Pipeline.common.Data.CSStep" xlink:title="This class allows for an easy way to quickly compare SPEC&#45;0122 style headers to determine if they come from the" target="_top">
<polygon fill="none" stroke="black" stroke-width="0.5" points="59.5,-93 5.5,-93 5.5,-74 59.5,-74 59.5,-93"/>
<text text-anchor="middle" x="32.5" y="-81" font-family="Vera Sans, DejaVu Sans, Liberation Sans, Arial, Helvetica, sans" font-size="10.00">CSStep</text>
</a>
</g>
</g>
<!-- CSStepData -->
<g id="node4" class="node">
<title>CSStepData</title>
<g id="a_node4"><a xlink:href="../api/CryoNIRSP_Pipeline.common.Data.CSStepData.html#CryoNIRSP_Pipeline.common.Data.CSStepData" xlink:title="CSStepData is an extension of FitsData that loads a single Calibration Curve from a directory" target="_top">
<polygon fill="none" stroke="black" stroke-width="0.5" points="192.5,-56 118.5,-56 118.5,-37 192.5,-37 192.5,-56"/>
<text text-anchor="middle" x="155.5" y="-44" font-family="Vera Sans, DejaVu Sans, Liberation Sans, Arial, Helvetica, sans" font-size="10.00">CSStepData</text>
</a>
</g>
</g>
<!-- FitsData -->
<g id="node5" class="node">
<title>FitsData</title>
<g id="a_node5"><a xlink:href="../api/CryoNIRSP_Pipeline.common.Data.FitsData.html#CryoNIRSP_Pipeline.common.Data.FitsData" xlink:title="FitsData is a basically a wrapper for astropy.io.fits, with some extra methods and properties to aid the" target="_top">
<polygon fill="none" stroke="black" stroke-width="0.5" points="61,-56 4,-56 4,-37 61,-37 61,-56"/>
<text text-anchor="middle" x="32.5" y="-44" font-family="Vera Sans, DejaVu Sans, Liberation Sans, Arial, Helvetica, sans" font-size="10.00">FitsData</text>
</a>
</g>
</g>
<!-- FitsData&#45;&gt;_TaskData -->
<g id="edge7" class="edge">
<title>FitsData&#45;&gt;_TaskData</title>
<path fill="none" stroke="black" stroke-width="0.5" d="M61.26,-54.99C78.1,-60.14 99.77,-66.77 117.99,-72.34"/>
<polygon fill="black" stroke="black" stroke-width="0.5" points="117.74,-74.09 123.03,-73.88 118.76,-70.74 117.74,-74.09"/>
</g>
<!-- FitsData&#45;&gt;CSStepData -->
<g id="edge2" class="edge">
<title>FitsData&#45;&gt;CSStepData</title>
<path fill="none" stroke="black" stroke-width="0.5" d="M61.26,-46.5C76.56,-46.5 95.86,-46.5 112.93,-46.5"/>
<polygon fill="black" stroke="black" stroke-width="0.5" points="113.15,-48.25 118.15,-46.5 113.15,-44.75 113.15,-48.25"/>
</g>
<!-- DemodulationData -->
<g id="node7" class="node">
<title>DemodulationData</title>
<g id="a_node7"><a xlink:href="../api/CryoNIRSP_Pipeline.common.Data.DemodulationData.html#CryoNIRSP_Pipeline.common.Data.DemodulationData" xlink:title="DemodulationData is a small modification of the `FitsData` class. It keeps track of demodulation matrices for each" target="_top">
<polygon fill="none" stroke="black" stroke-width="0.5" points="210,-19 101,-19 101,0 210,0 210,-19"/>
<text text-anchor="middle" x="155.5" y="-7" font-family="Vera Sans, DejaVu Sans, Liberation Sans, Arial, Helvetica, sans" font-size="10.00">DemodulationData</text>
</a>
</g>
</g>
<!-- FitsData&#45;&gt;DemodulationData -->
<g id="edge4" class="edge">
<title>FitsData&#45;&gt;DemodulationData</title>
<path fill="none" stroke="black" stroke-width="0.5" d="M61.26,-38.01C78.1,-32.86 99.77,-26.23 117.99,-20.66"/>
<polygon fill="black" stroke="black" stroke-width="0.5" points="118.76,-22.26 123.03,-19.12 117.74,-18.91 118.76,-22.26"/>
</g>
<!-- SoCCData -->
<g id="node10" class="node">
<title>SoCCData</title>
<g id="a_node10"><a xlink:href="../api/CryoNIRSP_Pipeline.common.Data.SoCCData.html#CryoNIRSP_Pipeline.common.Data.SoCCData" xlink:title="SoCCData performs 2 functions: First, it separates and sorts Calibration Sequence (CS) steps found among raw" target="_top">
<polygon fill="none" stroke="black" stroke-width="0.5" points="65,-130 0,-130 0,-111 65,-111 65,-130"/>
<text text-anchor="middle" x="32.5" y="-118" font-family="Vera Sans, DejaVu Sans, Liberation Sans, Arial, Helvetica, sans" font-size="10.00">SoCCData</text>
</a>
</g>
</g>
</g>
</svg>
