<?xml version="1.0" encoding="UTF-8" standalone="no"?>
<!DOCTYPE svg PUBLIC "-//W3C//DTD SVG 1.1//EN"
 "http://www.w3.org/Graphics/SVG/1.1/DTD/svg11.dtd">
<!-- Generated by graphviz version 2.44.1 (0)
 -->
<!-- Title: inheritance034e168c8a Pages: 1 -->
<svg width="530pt" height="360pt"
 viewBox="0.00 0.00 530.00 360.00" xmlns="http://www.w3.org/2000/svg" xmlns:xlink="http://www.w3.org/1999/xlink">
<g id="graph0" class="graph" transform="scale(1 1) rotate(0) translate(4 356)">
<title>inheritance034e168c8a</title>
<!-- Align3Data -->
<g id="node1" class="node">
<title>Align3Data</title>
<g id="a_node1"><a xlink:href="../api/CryoNIRSP_Pipeline.common.Data.Align3Data.html#CryoNIRSP_Pipeline.common.Data.Align3Data" xlink:title="Align3Data is an extension of `FitData` designed to only hold data associated with Align3. It inherits all of the" target="_top">
<polygon fill="white" stroke="black" stroke-width="0.5" points="371,-352 300,-352 300,-333 371,-333 371,-352"/>
<text text-anchor="middle" x="335.5" y="-340" font-family="Vera Sans, DejaVu Sans, Liberation Sans, Arial, Helvetica, sans" font-size="10.00">Align3Data</text>
</a>
</g>
</g>
<!-- _TaskData -->
<g id="node2" class="node">
<title>_TaskData</title>
<g id="a_node2"><a xlink:title="_TaskData is a class template that is used to define specific *Data classes that are designed to only hold data">
<polygon fill="white" stroke="black" stroke-width="0.5" points="223,-185 156,-185 156,-166 223,-166 223,-185"/>
<text text-anchor="middle" x="189.5" y="-173" font-family="Vera Sans, DejaVu Sans, Liberation Sans, Arial, Helvetica, sans" font-size="10.00">_TaskData</text>
</a>
</g>
</g>
<!-- _TaskData&#45;&gt;Align3Data -->
<g id="edge1" class="edge">
<title>_TaskData&#45;&gt;Align3Data</title>
<path fill="none" stroke="black" stroke-width="0.5" d="M193.59,-185.12C202.53,-211.44 230.98,-285.31 280,-324.5 284.41,-328.03 289.54,-330.87 294.85,-333.17"/>
<polygon fill="black" stroke="black" stroke-width="0.5" points="294.47,-334.9 299.76,-335.12 295.76,-331.65 294.47,-334.9"/>
</g>
<!-- CIDarkData -->
<g id="node3" class="node">
<title>CIDarkData</title>
<g id="a_node3"><a xlink:href="../api/CryoNIRSP_Pipeline.common.Data.CIDarkData.html#CryoNIRSP_Pipeline.common.Data.CIDarkData" xlink:title="CIDarkData is an extension of `FitData` designed to only hold data associated with CIDark. It inherits all of the" target="_top">
<polygon fill="white" stroke="black" stroke-width="0.5" points="372,-315 299,-315 299,-296 372,-296 372,-315"/>
<text text-anchor="middle" x="335.5" y="-303" font-family="Vera Sans, DejaVu Sans, Liberation Sans, Arial, Helvetica, sans" font-size="10.00">CIDarkData</text>
</a>
</g>
</g>
<!-- _TaskData&#45;&gt;CIDarkData -->
<g id="edge2" class="edge">
<title>_TaskData&#45;&gt;CIDarkData</title>
<path fill="none" stroke="black" stroke-width="0.5" d="M195.61,-185.15C207.5,-206.7 239.13,-259.07 280,-287.5 284.23,-290.44 288.98,-292.93 293.86,-295.03"/>
<polygon fill="black" stroke="black" stroke-width="0.5" points="293.49,-296.77 298.78,-297 294.79,-293.52 293.49,-296.77"/>
</g>
<!-- CILampGainData -->
<g id="node4" class="node">
<title>CILampGainData</title>
<g id="a_node4"><a xlink:href="../api/CryoNIRSP_Pipeline.common.Data.CILampGainData.html#CryoNIRSP_Pipeline.common.Data.CILampGainData" xlink:title="CILampGainData is an extension of `FitData` designed to only hold data associated with CILampGain. It inherits all of the" target="_top">
<polygon fill="white" stroke="black" stroke-width="0.5" points="385,-278 286,-278 286,-259 385,-259 385,-278"/>
<text text-anchor="middle" x="335.5" y="-266" font-family="Vera Sans, DejaVu Sans, Liberation Sans, Arial, Helvetica, sans" font-size="10.00">CILampGainData</text>
</a>
</g>
</g>
<!-- _TaskData&#45;&gt;CILampGainData -->
<g id="edge3" class="edge">
<title>_TaskData&#45;&gt;CILampGainData</title>
<path fill="none" stroke="black" stroke-width="0.5" d="M199.53,-185.14C214.74,-200.87 247.06,-232.15 280,-250.5 284.44,-252.97 289.27,-255.18 294.17,-257.12"/>
<polygon fill="black" stroke="black" stroke-width="0.5" points="293.77,-258.84 299.07,-258.97 295.01,-255.56 293.77,-258.84"/>
</g>
<!-- CIObservationData -->
<g id="node5" class="node">
<title>CIObservationData</title>
<g id="a_node5"><a xlink:href="../api/CryoNIRSP_Pipeline.common.Data.CIObservationData.html#CryoNIRSP_Pipeline.common.Data.CIObservationData" xlink:title="CIObservationData is an extension of `FitData` designed to only hold data associated with CIObservation. It inherits all of the" target="_top">
<polygon fill="white" stroke="black" stroke-width="0.5" points="390,-241 281,-241 281,-222 390,-222 390,-241"/>
<text text-anchor="middle" x="335.5" y="-229" font-family="Vera Sans, DejaVu Sans, Liberation Sans, Arial, Helvetica, sans" font-size="10.00">CIObservationData</text>
</a>
</g>
</g>
<!-- _TaskData&#45;&gt;CIObservationData -->
<g id="edge4" class="edge">
<title>_TaskData&#45;&gt;CIObservationData</title>
<path fill="none" stroke="black" stroke-width="0.5" d="M211.64,-185.06C229.65,-193.06 256.3,-204.57 280,-213.5 286.17,-215.82 292.79,-218.15 299.21,-220.32"/>
<polygon fill="black" stroke="black" stroke-width="0.5" points="298.78,-222.02 304.08,-221.94 299.89,-218.7 298.78,-222.02"/>
</g>
<!-- Gain1Data -->
<g id="node11" class="node">
<title>Gain1Data</title>
<g id="a_node11"><a xlink:href="../api/CryoNIRSP_Pipeline.common.Data.Gain1Data.html#CryoNIRSP_Pipeline.common.Data.Gain1Data" xlink:title="Gain1Data is an extension of `FitData` designed to only hold data associated with Gain1. It inherits all of the" target="_top">
<polygon fill="white" stroke="black" stroke-width="0.5" points="369.5,-204 301.5,-204 301.5,-185 369.5,-185 369.5,-204"/>
<text text-anchor="middle" x="335.5" y="-192" font-family="Vera Sans, DejaVu Sans, Liberation Sans, Arial, Helvetica, sans" font-size="10.00">Gain1Data</text>
</a>
</g>
</g>
<!-- _TaskData&#45;&gt;Gain1Data -->
<g id="edge7" class="edge">
<title>_TaskData&#45;&gt;Gain1Data</title>
<path fill="none" stroke="black" stroke-width="0.5" d="M223.18,-179.81C244.93,-182.68 273.6,-186.46 296.39,-189.47"/>
<polygon fill="black" stroke="black" stroke-width="0.5" points="296.27,-191.22 301.46,-190.14 296.73,-187.75 296.27,-191.22"/>
</g>
<!-- Gain4Data -->
<g id="node12" class="node">
<title>Gain4Data</title>
<g id="a_node12"><a xlink:href="../api/CryoNIRSP_Pipeline.common.Data.Gain4Data.html#CryoNIRSP_Pipeline.common.Data.Gain4Data" xlink:title="Gain4Data is an extension of `FitData` designed to only hold data associated with Gain4. It inherits all of the" target="_top">
<polygon fill="white" stroke="black" stroke-width="0.5" points="369.5,-167 301.5,-167 301.5,-148 369.5,-148 369.5,-167"/>
<text text-anchor="middle" x="335.5" y="-155" font-family="Vera Sans, DejaVu Sans, Liberation Sans, Arial, Helvetica, sans" font-size="10.00">Gain4Data</text>
</a>
</g>
</g>
<!-- _TaskData&#45;&gt;Gain4Data -->
<g id="edge8" class="edge">
<title>_TaskData&#45;&gt;Gain4Data</title>
<path fill="none" stroke="black" stroke-width="0.5" d="M223.18,-171.42C244.93,-168.7 273.6,-165.11 296.39,-162.26"/>
<polygon fill="black" stroke="black" stroke-width="0.5" points="296.71,-163.99 301.46,-161.63 296.28,-160.51 296.71,-163.99"/>
</g>
<!-- SPAlign1Data -->
<g id="node16" class="node">
<title>SPAlign1Data</title>
<g id="a_node16"><a xlink:href="../api/CryoNIRSP_Pipeline.common.Data.SPAlign1Data.html#CryoNIRSP_Pipeline.common.Data.SPAlign1Data" xlink:title="SPAlign1Data is an extension of `FitData` designed to only hold data associated with SPAlign1. It inherits all of the" target="_top">
<polygon fill="white" stroke="black" stroke-width="0.5" points="376.5,-130 294.5,-130 294.5,-111 376.5,-111 376.5,-130"/>
<text text-anchor="middle" x="335.5" y="-118" font-family="Vera Sans, DejaVu Sans, Liberation Sans, Arial, Helvetica, sans" font-size="10.00">SPAlign1Data</text>
</a>
</g>
</g>
<!-- _TaskData&#45;&gt;SPAlign1Data -->
<g id="edge9" class="edge">
<title>_TaskData&#45;&gt;SPAlign1Data</title>
<path fill="none" stroke="black" stroke-width="0.5" d="M221.33,-165.94C228.82,-163.4 236.76,-160.51 244,-157.5 260.52,-150.63 263.52,-146.46 280,-139.5 286.33,-136.83 293.17,-134.23 299.8,-131.85"/>
<polygon fill="black" stroke="black" stroke-width="0.5" points="300.69,-133.39 304.82,-130.07 299.52,-130.09 300.69,-133.39"/>
</g>
<!-- SPDarkData -->
<g id="node17" class="node">
<title>SPDarkData</title>
<g id="a_node17"><a xlink:href="../api/CryoNIRSP_Pipeline.common.Data.SPDarkData.html#CryoNIRSP_Pipeline.common.Data.SPDarkData" xlink:title="SPDarkData is an extension of `FitData` designed to only hold data associated with SPDark. It inherits all of the" target="_top">
<polygon fill="white" stroke="black" stroke-width="0.5" points="373,-93 298,-93 298,-74 373,-74 373,-93"/>
<text text-anchor="middle" x="335.5" y="-81" font-family="Vera Sans, DejaVu Sans, Liberation Sans, Arial, Helvetica, sans" font-size="10.00">SPDarkData</text>
</a>
</g>
</g>
<!-- _TaskData&#45;&gt;SPDarkData -->
<g id="edge10" class="edge">
<title>_TaskData&#45;&gt;SPDarkData</title>
<path fill="none" stroke="black" stroke-width="0.5" d="M223.07,-168.37C230.43,-165.76 237.87,-162.23 244,-157.5 267.12,-139.64 256.98,-120.49 280,-102.5 283.97,-99.4 288.48,-96.78 293.16,-94.58"/>
<polygon fill="black" stroke="black" stroke-width="0.5" points="294.01,-96.12 297.9,-92.52 292.61,-92.91 294.01,-96.12"/>
</g>
<!-- SPLampGainData -->
<g id="node18" class="node">
<title>SPLampGainData</title>
<g id="a_node18"><a xlink:href="../api/CryoNIRSP_Pipeline.common.Data.SPLampGainData.html#CryoNIRSP_Pipeline.common.Data.SPLampGainData" xlink:title="SPLampGainData is an extension of `FitData` designed to only hold data associated with SPLampGain. It inherits all of the" target="_top">
<polygon fill="white" stroke="black" stroke-width="0.5" points="386,-56 285,-56 285,-37 386,-37 386,-56"/>
<text text-anchor="middle" x="335.5" y="-44" font-family="Vera Sans, DejaVu Sans, Liberation Sans, Arial, Helvetica, sans" font-size="10.00">SPLampGainData</text>
</a>
</g>
</g>
<!-- _TaskData&#45;&gt;SPLampGainData -->
<g id="edge11" class="edge">
<title>_TaskData&#45;&gt;SPLampGainData</title>
<path fill="none" stroke="black" stroke-width="0.5" d="M223.28,-169.46C230.8,-166.8 238.26,-162.99 244,-157.5 276.03,-126.87 247.88,-95.04 280,-64.5 282.37,-62.25 285.03,-60.28 287.86,-58.55"/>
<polygon fill="black" stroke="black" stroke-width="0.5" points="288.9,-59.98 292.44,-56.04 287.21,-56.91 288.9,-59.98"/>
</g>
<!-- SPObservationData -->
<g id="node19" class="node">
<title>SPObservationData</title>
<g id="a_node19"><a xlink:href="../api/CryoNIRSP_Pipeline.common.Data.SPObservationData.html#CryoNIRSP_Pipeline.common.Data.SPObservationData" xlink:title="SPObservationData is an extension of `FitData` designed to only hold data associated with SPObservation. It inherits all of the" target="_top">
<polygon fill="white" stroke="black" stroke-width="0.5" points="391,-19 280,-19 280,0 391,0 391,-19"/>
<text text-anchor="middle" x="335.5" y="-7" font-family="Vera Sans, DejaVu Sans, Liberation Sans, Arial, Helvetica, sans" font-size="10.00">SPObservationData</text>
</a>
</g>
</g>
<!-- _TaskData&#45;&gt;SPObservationData -->
<g id="edge12" class="edge">
<title>_TaskData&#45;&gt;SPObservationData</title>
<path fill="none" stroke="black" stroke-width="0.5" d="M223.11,-170.04C230.82,-167.37 238.41,-163.41 244,-157.5 285.22,-113.97 238.66,-70.92 280,-27.5 282.02,-25.38 284.29,-23.51 286.73,-21.86"/>
<polygon fill="black" stroke="black" stroke-width="0.5" points="287.91,-23.2 291.29,-19.12 286.11,-20.2 287.91,-23.2"/>
</g>
<!-- CSStep -->
<g id="node6" class="node">
<title>CSStep</title>
<g id="a_node6"><a xlink:href="../api/CryoNIRSP_Pipeline.common.Data.CSStep.html#CryoNIRSP_Pipeline.common.Data.CSStep" xlink:title="This class allows for an easy way to quickly compare SPEC&#45;0122 style headers to determine if they come from the" target="_top">
<polygon fill="white" stroke="black" stroke-width="0.5" points="76.5,-185 22.5,-185 22.5,-166 76.5,-166 76.5,-185"/>
<text text-anchor="middle" x="49.5" y="-173" font-family="Vera Sans, DejaVu Sans, Liberation Sans, Arial, Helvetica, sans" font-size="10.00">CSStep</text>
</a>
</g>
</g>
<!-- CSStepData -->
<g id="node7" class="node">
<title>CSStepData</title>
<g id="a_node7"><a xlink:href="../api/CryoNIRSP_Pipeline.common.Data.CSStepData.html#CryoNIRSP_Pipeline.common.Data.CSStepData" xlink:title="CSStepData is an extension of FitsData that loads a single Calibration Curve from a directory" target="_top">
<polygon fill="white" stroke="black" stroke-width="0.5" points="226.5,-148 152.5,-148 152.5,-129 226.5,-129 226.5,-148"/>
<text text-anchor="middle" x="189.5" y="-136" font-family="Vera Sans, DejaVu Sans, Liberation Sans, Arial, Helvetica, sans" font-size="10.00">CSStepData</text>
</a>
</g>
</g>
<!-- FitsData -->
<g id="node8" class="node">
<title>FitsData</title>
<g id="a_node8"><a xlink:href="../api/CryoNIRSP_Pipeline.common.Data.FitsData.html#CryoNIRSP_Pipeline.common.Data.FitsData" xlink:title="FitsData is a basically a wrapper for astropy.io.fits, with some extra methods and properties to aid the" target="_top">
<polygon fill="white" stroke="black" stroke-width="0.5" points="78,-148 21,-148 21,-129 78,-129 78,-148"/>
<text text-anchor="middle" x="49.5" y="-136" font-family="Vera Sans, DejaVu Sans, Liberation Sans, Arial, Helvetica, sans" font-size="10.00">FitsData</text>
</a>
</g>
</g>
<!-- FitsData&#45;&gt;_TaskData -->
<g id="edge14" class="edge">
<title>FitsData&#45;&gt;_TaskData</title>
<path fill="none" stroke="black" stroke-width="0.5" d="M78.09,-145.9C98.86,-151.47 127.57,-159.16 150.51,-165.31"/>
<polygon fill="black" stroke="black" stroke-width="0.5" points="150.32,-167.08 155.61,-166.68 151.23,-163.7 150.32,-167.08"/>
</g>
<!-- FitsData&#45;&gt;CSStepData -->
<g id="edge5" class="edge">
<title>FitsData&#45;&gt;CSStepData</title>
<path fill="none" stroke="black" stroke-width="0.5" d="M78.09,-138.5C97.83,-138.5 124.73,-138.5 147.04,-138.5"/>
<polygon fill="black" stroke="black" stroke-width="0.5" points="147.31,-140.25 152.31,-138.5 147.31,-136.75 147.31,-140.25"/>
</g>
<!-- DemodulationData -->
<g id="node10" class="node">
<title>DemodulationData</title>
<g id="a_node10"><a xlink:href="../api/CryoNIRSP_Pipeline.common.Data.DemodulationData.html#CryoNIRSP_Pipeline.common.Data.DemodulationData" xlink:title="DemodulationData is a small modification of the `FitsData` class. It keeps track of demodulation matrices for each" target="_top">
<polygon fill="white" stroke="black" stroke-width="0.5" points="244,-111 135,-111 135,-92 244,-92 244,-111"/>
<text text-anchor="middle" x="189.5" y="-99" font-family="Vera Sans, DejaVu Sans, Liberation Sans, Arial, Helvetica, sans" font-size="10.00">DemodulationData</text>
</a>
</g>
</g>
<!-- FitsData&#45;&gt;DemodulationData -->
<g id="edge6" class="edge">
<title>FitsData&#45;&gt;DemodulationData</title>
<path fill="none" stroke="black" stroke-width="0.5" d="M78.09,-131.1C98.06,-125.75 125.36,-118.43 147.82,-112.41"/>
<polygon fill="black" stroke="black" stroke-width="0.5" points="148.45,-114.05 152.82,-111.07 147.54,-110.67 148.45,-114.05"/>
</g>
<!-- DataSetData -->
<g id="node9" class="node">
<title>DataSetData</title>
<g id="a_node9"><a xlink:href="../api/CryoNIRSP_Pipeline.common.Data.DataSetData.html#CryoNIRSP_Pipeline.common.Data.DataSetData" xlink:title="DataSetData is designed to handle the aggregation of a bunch of files that belong to mulitple slit positions of" target="_top">
<polygon fill="white" stroke="black" stroke-width="0.5" points="89,-222 10,-222 10,-203 89,-203 89,-222"/>
<text text-anchor="middle" x="49.5" y="-210" font-family="Vera Sans, DejaVu Sans, Liberation Sans, Arial, Helvetica, sans" font-size="10.00">DataSetData</text>
</a>
</g>
</g>
<!-- RampAggregator -->
<g id="node13" class="node">
<title>RampAggregator</title>
<g id="a_node13"><a xlink:href="../api/CryoNIRSP_Pipeline.common.Data.RampAggregator.html#CryoNIRSP_Pipeline.common.Data.RampAggregator" xlink:title="This class reads the raw DHS files in a directory and sorts them into individual ramps, each containing mulitple" target="_top">
<polygon fill="white" stroke="black" stroke-width="0.5" points="99,-259 0,-259 0,-240 99,-240 99,-259"/>
<text text-anchor="middle" x="49.5" y="-247" font-family="Vera Sans, DejaVu Sans, Liberation Sans, Arial, Helvetica, sans" font-size="10.00">RampAggregator</text>
</a>
</g>
</g>
<!-- RampData -->
<g id="node14" class="node">
<title>RampData</title>
<g id="a_node14"><a xlink:href="../api/CryoNIRSP_Pipeline.common.Data.RampData.html#CryoNIRSP_Pipeline.common.Data.RampData" xlink:title="A container for the loading and manipulating of raw DHS data from IR cameras. It is similar to FitsData in how" target="_top">
<polygon fill="white" stroke="black" stroke-width="0.5" points="83.5,-296 15.5,-296 15.5,-277 83.5,-277 83.5,-296"/>
<text text-anchor="middle" x="49.5" y="-284" font-family="Vera Sans, DejaVu Sans, Liberation Sans, Arial, Helvetica, sans" font-size="10.00">RampData</text>
</a>
</g>
</g>
<!-- RawDrawerData -->
<g id="node15" class="node">
<title>RawDrawerData</title>
<g id="a_node15"><a xlink:href="../api/CryoNIRSP_Pipeline.common.Data.RawDrawerData.html#CryoNIRSP_Pipeline.common.Data.RawDrawerData" xlink:title="RawDrawerData performs 2 functions: First, it separates and sorts Calibration Sequence (CS) steps found among raw" target="_top">
<polygon fill="white" stroke="black" stroke-width="0.5" points="97.5,-333 1.5,-333 1.5,-314 97.5,-314 97.5,-333"/>
<text text-anchor="middle" x="49.5" y="-321" font-family="Vera Sans, DejaVu Sans, Liberation Sans, Arial, Helvetica, sans" font-size="10.00">RawDrawerData</text>
</a>
</g>
</g>
<!-- SlitPositionData -->
<g id="node20" class="node">
<title>SlitPositionData</title>
<g id="a_node20"><a xlink:href="../api/CryoNIRSP_Pipeline.common.Data.SlitPositionData.html#CryoNIRSP_Pipeline.common.Data.SlitPositionData" xlink:title="SlitPositionData is an extension of `FitData` designed to only hold data associated with SPObservation. It inherits all of the" target="_top">
<polygon fill="white" stroke="black" stroke-width="0.5" points="522,-19 427,-19 427,0 522,0 522,-19"/>
<text text-anchor="middle" x="474.5" y="-7" font-family="Vera Sans, DejaVu Sans, Liberation Sans, Arial, Helvetica, sans" font-size="10.00">SlitPositionData</text>
</a>
</g>
</g>
<!-- SPObservationData&#45;&gt;SlitPositionData -->
<g id="edge13" class="edge">
<title>SPObservationData&#45;&gt;SlitPositionData</title>
<path fill="none" stroke="black" stroke-width="0.5" d="M391.04,-9.5C401.08,-9.5 411.54,-9.5 421.5,-9.5"/>
<polygon fill="black" stroke="black" stroke-width="0.5" points="421.66,-11.25 426.66,-9.5 421.66,-7.75 421.66,-11.25"/>
</g>
</g>
</svg>
